<svg width="383" height="63" viewBox="0 0 383 63" fill="none" xmlns="http://www.w3.org/2000/svg">
<g clip-path="url(#clip0)">
<path fill-rule="evenodd" clip-rule="evenodd" d="M355.462 2.25L354.616 4.58333C354.447 4.16667 354.024 4 353.516 4C352.755 4 351.993 4.41667 351.317 5.08333C350.301 6.08333 349.54 7.66667 349.54 8.75C349.54 9.83333 350.132 10.1667 350.724 10.1667C351.232 10.1667 351.74 9.91667 352.078 9.58333C352.586 9.08333 353.262 8.16667 353.516 7.58333H353.601L353.347 8.33333C353.009 9.41667 352.839 9.75 352.839 9.83333C352.839 9.91667 352.924 10.0833 353.347 10.0833C355.208 10.0833 355.885 8.83333 356.393 8.08333H356.308C355.885 8.66667 355.462 9 355.208 9C355.208 9 355.124 9 355.124 8.91667C355.124 8.91667 355.124 8.83333 355.208 8.75L358 1L354.954 1.33333V1.41667L355.208 1.5C355.462 1.58333 355.631 1.66667 355.631 1.75C355.547 1.91667 355.462 2.16667 355.462 2.25ZM354.362 4.91667C354.362 5.33333 354.108 5.91667 353.77 6.66667C353.262 7.66667 352.755 8.58333 352.247 9.08333C352.078 9.25 351.993 9.33333 351.824 9.33333C351.655 9.33333 351.57 9.25 351.57 8.83333C351.57 7.91667 352.755 5.41667 353.432 4.66667C353.601 4.5 353.77 4.41667 353.939 4.41667C354.193 4.33333 354.362 4.58333 354.362 4.91667V4.91667ZM346.071 10C346.663 8.75 347.256 7.41667 347.425 7.08333C347.594 6.66667 347.933 6.16667 348.102 6C348.186 5.91667 348.356 5.83333 348.525 5.83333C348.948 5.83333 349.625 6.25 349.709 6.33333C350.048 6 350.301 5.5 350.301 5.08333C350.301 4.33333 349.794 4.08333 349.455 4.08333C349.117 4.08333 348.863 4.16667 348.609 4.41667C348.186 4.83333 347.932 5.25 347.086 7.33333H347.002L347.34 6.08333C347.679 5.08333 347.679 4.75 347.679 4.58333C347.679 4.33333 347.425 4.08333 346.664 4.08333C345.987 4.08333 345.648 4.33333 345.31 4.58333C344.971 4.91667 344.718 5.33333 344.295 6.25H344.379C344.718 5.58333 344.887 5.41667 345.056 5.16667C345.141 5.08333 345.225 5 345.395 5C345.479 5 345.564 5 345.564 5.08333C345.564 5.16667 345.564 5.25 345.479 5.58333L344.125 9.91667H346.071V10V10ZM342.349 4.25C342.518 4.25 342.603 4.41667 342.603 4.75C342.603 5.16667 342.433 6 341.926 6.5C341.672 6.75 341.334 6.91667 340.826 7.08333C341.164 5.66667 341.926 4.25 342.349 4.25ZM340.403 10.1667C341.841 10.1667 342.772 9.08333 343.364 8.08333L343.279 8C342.772 8.58333 342.264 9.08333 341.672 9.08333C341.334 9.08333 340.826 8.91667 340.826 8C340.826 7.75 340.826 7.41667 340.911 7.16667C341.926 7 342.772 6.75 343.364 6.5C344.21 6.08333 344.464 5.5 344.464 5C344.464 4.41667 343.956 3.91667 342.941 3.91667C340.741 3.91667 338.711 6.25 338.711 8.25C338.626 9.41667 339.219 10.1667 340.403 10.1667ZM337.104 4.25C337.273 4.25 337.357 4.41667 337.357 4.75C337.357 5.16667 337.188 6 336.681 6.5C336.427 6.75 336.088 6.91667 335.581 7.08333C335.919 5.66667 336.681 4.25 337.104 4.25ZM335.158 10.1667C336.596 10.1667 337.527 9.08333 338.119 8.08333L338.034 8C337.527 8.58333 337.019 9.08333 336.427 9.08333C336.088 9.08333 335.581 8.91667 335.581 8C335.581 7.75 335.581 7.41667 335.665 7.16667C336.681 7 337.527 6.75 338.119 6.5C338.965 6.08333 339.219 5.5 339.219 5C339.219 4.41667 338.711 3.91667 337.696 3.91667C335.496 3.91667 333.466 6.25 333.466 8.25C333.381 9.41667 333.973 10.1667 335.158 10.1667V10.1667ZM330.082 7.66667C330.082 6.91667 330.589 6.08333 331.351 4.66667L331.605 4.16667H329.997C329.405 4.16667 328.982 4.16667 328.728 4.41667C328.221 4.91667 327.967 5.91667 327.798 6.91667H327.882C327.967 6.58333 328.051 6.33333 328.136 6.16667C328.305 5.83333 328.474 5.75 329.067 5.75H330.336L329.828 6.08333C328.559 7.08333 328.051 7.66667 328.051 8.41667C328.051 9.25 328.644 10.1667 329.659 10.1667C330.589 10.1667 331.774 9.33333 332.62 7.66667C332.874 7.16667 333.466 5.91667 333.466 5C333.466 4.08333 333.043 3.91667 332.704 3.91667C332.028 3.91667 331.605 4.75 331.605 5.25C331.605 5.58333 331.689 5.75 332.112 5.91667L332.281 6C332.704 6.16667 332.874 6.25 332.874 6.41667C332.874 6.75 332.62 7.33333 332.451 7.66667C332.028 8.41667 331.52 9.08333 331.012 9.08333C330.336 9 330.082 8.08333 330.082 7.66667V7.66667ZM323.568 10C324.16 8.75 324.667 7.41667 324.921 7.08333C325.09 6.66667 325.429 6.16667 325.598 6C325.767 5.91667 325.852 5.83333 326.021 5.83333C326.444 5.83333 327.121 6.25 327.205 6.33333C327.544 6 327.798 5.5 327.798 5.08333C327.798 4.33333 327.29 4.08333 326.952 4.08333C326.613 4.08333 326.359 4.16667 326.105 4.41667C325.682 4.83333 325.429 5.25 324.583 7.33333H324.498L324.836 6.08333C325.175 5.08333 325.175 4.75 325.175 4.58333C325.175 4.33333 324.921 4.08333 324.16 4.08333C323.483 4.08333 323.144 4.33333 322.806 4.58333C322.468 4.91667 322.214 5.33333 321.791 6.25H321.875C322.214 5.58333 322.383 5.41667 322.552 5.16667C322.637 5.08333 322.721 5 322.891 5C322.975 5 323.06 5 323.06 5.08333C323.06 5.16667 323.06 5.25 322.975 5.58333L321.622 9.91667H323.568V10V10ZM319.845 4.25C320.014 4.25 320.099 4.41667 320.099 4.75C320.099 5.16667 319.93 6 319.422 6.5C319.168 6.75 318.83 6.91667 318.322 7.08333C318.576 5.66667 319.337 4.25 319.845 4.25ZM317.815 10.1667C319.253 10.1667 320.183 9.08333 320.776 8.08333L320.691 8C320.183 8.58333 319.676 9.08333 319.084 9.08333C318.745 9.08333 318.238 8.91667 318.238 8C318.238 7.75 318.238 7.41667 318.322 7.16667C319.337 7 320.183 6.75 320.776 6.5C321.622 6.08333 321.875 5.5 321.875 5C321.875 4.41667 321.368 3.91667 320.353 3.91667C318.153 3.91667 316.123 6.25 316.123 8.25C316.123 9.41667 316.63 10.1667 317.815 10.1667V10.1667ZM312.739 7.66667C312.739 6.91667 313.246 6.08333 314.008 4.66667L314.261 4.16667H312.654C312.062 4.16667 311.639 4.16667 311.385 4.41667C310.877 4.91667 310.624 5.91667 310.454 6.91667H310.539C310.624 6.58333 310.708 6.33333 310.793 6.16667C310.962 5.83333 311.216 5.75 311.723 5.75H312.992L312.485 6.08333C311.216 7.08333 310.708 7.66667 310.708 8.41667C310.708 9.25 311.3 10.1667 312.316 10.1667C313.246 10.1667 314.431 9.33333 315.277 7.66667C315.53 7.16667 316.123 5.91667 316.123 5C316.123 4.08333 315.7 3.91667 315.361 3.91667C314.684 3.91667 314.261 4.75 314.261 5.25C314.261 5.58333 314.346 5.75 314.769 5.91667L314.938 6C315.361 6.16667 315.53 6.25 315.53 6.41667C315.53 6.75 315.277 7.33333 315.107 7.66667C314.684 8.41667 314.177 9.08333 313.669 9.08333C312.992 9 312.739 8.08333 312.739 7.66667ZM306.309 9.91667C306.309 10 306.309 10.1667 306.817 10.1667C308.424 10.1667 309.439 9.16667 309.947 8.16667H309.862C309.439 8.75 309.101 9.08333 308.762 9.08333C308.678 9.08333 308.678 9 308.762 8.83333L309.693 6.58333C309.947 5.91667 310.285 5.33333 310.285 4.91667C310.285 4.5 310.031 4.08333 309.101 4.08333C308.593 4.08333 308.086 4.25 307.578 4.75C307.07 5.25 306.647 6.16667 305.971 7.41667H305.886L306.394 6.16667C306.817 5.16667 306.817 4.83333 306.817 4.66667C306.817 4.41667 306.563 4.16667 305.801 4.16667C305.125 4.16667 304.702 4.41667 304.363 4.66667C304.025 5 303.771 5.41667 303.348 6.33333H303.432C303.771 5.66667 303.94 5.5 304.109 5.25C304.194 5.16667 304.279 5.08333 304.448 5.08333C304.532 5.08333 304.617 5.08333 304.617 5.16667C304.617 5.25 304.617 5.33333 304.532 5.41667L302.756 9.91667H304.702C305.971 7.33333 306.901 5.66667 307.24 5.33333C307.409 5.16667 307.578 5.16667 307.663 5.16667C307.832 5.16667 307.916 5.25 307.916 5.33333C307.916 5.5 307.832 5.66667 307.663 6.08333L306.732 8.25C306.394 9.41667 306.309 9.83333 306.309 9.91667V9.91667ZM296.664 8.66667C296.664 6.16667 298.61 1.66667 300.218 1.66667C300.641 1.66667 300.979 2 300.979 3C300.979 5.5 299.033 10 297.426 10C297.003 10 296.664 9.66667 296.664 8.66667ZM303.094 4.66667C303.094 2.33333 301.571 1.41667 299.964 1.41667C296.411 1.41667 294.634 4.75 294.634 6.91667C294.634 9.25 296.157 10.1667 297.764 10.1667C301.233 10.1667 303.094 6.91667 303.094 4.66667V4.66667ZM290.827 9.25C290.827 8.25 290.15 7.83333 289.473 7.83333C288.712 7.83333 288.204 8.41667 288.204 9C288.204 9.33333 288.289 9.66667 288.881 9.75L289.135 9.83333C289.473 9.91667 289.558 9.91667 289.558 10.0833C289.558 11.0833 288.881 11.75 287.02 12.1667V12.25C289.22 12 290.827 11 290.827 9.25ZM288.712 4.33333C288.712 4.25 288.627 4.08333 288.204 4.08333C286.512 4.08333 285.582 5.41667 285.159 6.25H285.243C285.751 5.58333 286.005 5.25 286.343 5.25C286.428 5.25 286.428 5.33333 286.343 5.5L284.397 11.6667C284.059 12.6667 284.059 12.75 283.89 12.75C283.805 12.75 283.805 12.6667 283.721 12.4167L283.382 11.3333C283.298 11 283.128 10.9167 282.959 10.9167C282.452 10.9167 281.944 11.3333 281.944 11.9167C281.944 12.4167 282.282 13 283.382 13C284.99 13 286.428 11.3333 286.935 9.75L288.543 5C288.627 4.75 288.712 4.41667 288.712 4.33333ZM288.204 3.33333C288.797 3.33333 289.389 2.83333 289.389 2.16667C289.389 1.66667 289.05 1.25 288.458 1.25C287.866 1.25 287.274 1.75 287.274 2.41667C287.189 2.91667 287.528 3.33333 288.204 3.33333ZM281.352 8.41667C280.929 9.41667 280.844 9.83333 280.844 9.91667C280.844 10 280.929 10.1667 281.352 10.1667C283.044 10.1667 283.974 8.91667 284.397 8.16667H284.313C283.89 8.66667 283.551 9.08333 283.213 9.08333C283.128 9.08333 283.128 9 283.213 8.83333L284.397 5.83333C284.82 4.83333 284.905 4.41667 284.905 4.33333C284.905 4.25 284.82 4.08333 284.397 4.08333C282.705 4.08333 281.775 5.41667 281.352 6.25H281.436C281.944 5.58333 282.198 5.25 282.536 5.25C282.621 5.25 282.621 5.33333 282.536 5.5L281.352 8.41667ZM284.313 3.33333C284.905 3.33333 285.497 2.83333 285.497 2.16667C285.497 1.66667 285.159 1.25 284.567 1.25C283.974 1.25 283.382 1.75 283.382 2.41667C283.298 2.91667 283.636 3.33333 284.313 3.33333ZM277.037 10C277.629 8.75 278.137 7.41667 278.391 7.08333C278.56 6.66667 278.898 6.16667 279.068 6C279.152 5.91667 279.321 5.83333 279.491 5.83333C279.914 5.83333 280.59 6.25 280.675 6.33333C281.013 6 281.267 5.5 281.267 5.08333C281.267 4.33333 280.76 4.08333 280.421 4.08333C280.083 4.08333 279.829 4.16667 279.575 4.41667C279.152 4.83333 278.898 5.25 278.052 7.33333H277.968L278.306 6.08333C278.644 5.08333 278.645 4.75 278.645 4.58333C278.645 4.33333 278.391 4.08333 277.629 4.08333C276.952 4.08333 276.614 4.33333 276.276 4.58333C275.937 4.91667 275.683 5.33333 275.26 6.25H275.345C275.683 5.58333 275.853 5.41667 276.022 5.16667C276.106 5.08333 276.191 5 276.36 5C276.445 5 276.529 5 276.529 5.08333C276.529 5.16667 276.529 5.25 276.445 5.58333L275.091 9.91667H277.037V10V10ZM276.191 3.25C276.868 2.41667 277.037 2.25 277.629 1.91667L278.221 1.66667H274.922V1.75L275.26 1.91667C275.768 2.16667 275.853 2.25 275.853 2.33333C275.853 2.5 275.683 2.83333 274.584 4.25L272.046 7.66667H271.961L272.299 2.58333C272.299 2.41667 272.299 2.25 272.384 2.16667C272.469 2 272.722 1.83333 273.23 1.83333H273.484V1.66667H269V1.75H269.254C269.931 1.83333 270.015 1.91667 269.931 2.58333L269.677 10.0833H270.354L276.191 3.25V3.25Z" fill="#D72236"/>
<path fill-rule="evenodd" clip-rule="evenodd" d="M379.978 58.0043V2H378.876L360.454 5.4181V6.53556L364.476 8.83621V58.0043C364.476 60.305 363.243 60.5022 360.454 60.7651V61.8825H384V60.7651C381.146 60.5679 379.978 60.305 379.978 58.0043ZM343.265 41.8998C343.265 29.0162 341.903 21.4569 337.881 21.4569C333.859 21.4569 332.497 29.0162 332.497 41.8998C332.497 54.7834 333.859 61.0938 337.881 61.0938C341.903 61.0938 343.265 54.7177 343.265 41.8998ZM359.805 41.8998C359.805 54.6519 350.789 62.9343 337.881 62.9343C324.973 62.9343 315.957 54.6519 315.957 41.8998C315.957 29.1476 324.195 19.6164 337.881 19.6164C351.568 19.6164 359.805 29.0819 359.805 41.8998ZM312.492 19.6164C305.486 19.6164 302.503 28.819 301.205 33.9461L301.53 19.6164H300.427L281.681 24.2177V25.3351L285.703 27.9644V58.07C285.703 60.3707 284.47 60.5679 281.681 60.8308V61.9483H307.108V60.8308C302.892 60.2392 301.205 59.9763 301.205 56.8211V35.8524C304.578 31.9741 312.686 31.8427 315.865 33.5517L316.384 33.1573V20.931C315.605 20.1422 314.438 19.6164 312.492 19.6164ZM206.854 47.6843C206.854 43.1487 208.541 41.5054 210.941 40.6509C211.978 40.2565 212.822 40.0593 213.989 39.7306V53.9946C213.211 54.3233 212.627 54.4547 211.784 54.4547C208.086 54.4547 206.854 51.4968 206.854 47.6843ZM234.357 56.0981C233.449 56.4925 232.8 56.6897 232.022 56.6897C230.595 56.6897 229.557 55.6379 229.557 53.4688V33.2231C229.557 22.903 222.616 19.6164 211.459 19.6164C201.989 19.6164 194.789 22.5086 194.789 29.805C194.789 32.6972 196.281 34.8664 198.551 35.5894L207.892 34.9321C207.438 29.6735 206.854 21.4569 211.07 21.4569C213.47 21.4569 213.989 24.1519 213.989 27.9644V38.4817C209.968 38.9418 206.335 39.2705 201.73 40.7166C196.151 42.4256 191.546 45.3179 191.546 52.0226C191.546 59.319 196.605 63 202.249 63C206.659 63 211.33 60.6994 214.054 55.375C215.481 59.9763 218.465 63 224.562 63C229.103 63 232.865 60.8308 234.811 56.8211L234.357 56.0981ZM164.627 39.9278V9.69073H165.6C171.762 9.69073 176.173 14.9494 176.173 24.4806C176.173 34.0776 172.411 39.9278 165.6 39.9278H164.627ZM164.627 55.6379V41.5054H169.557C184.995 41.5054 192.324 35.3922 192.324 24.4806C192.324 15.0808 185.384 8.17888 170.4 8.17888H142.832V9.29634C147.762 9.8222 148.022 10.5453 148.022 14.4235V55.6379C148.022 59.5162 147.697 60.2392 142.832 60.7651V61.8825H173.319V60.7651C166.703 60.5022 164.627 59.5819 164.627 55.6379ZM119.611 20.3394V9.69073H118.508C112.151 15.0808 105.6 19.1562 99.7622 21.4569V22.5744H103.849V49.722C103.849 58.9246 108.908 62.6056 116.173 62.6056C122.53 62.6056 128.043 58.7931 129.989 51.6282L129.081 51.2338C127.589 53.2716 125.838 53.9946 123.892 53.9946C121.622 53.9946 119.676 52.4828 119.676 49.1961V22.6401H128.043V20.3394H119.611ZM80.6919 21.4569C84.3243 21.4569 85.5568 26.9784 85.5568 36.444L74.8541 37.2328C75.1784 27.7015 76.9297 21.4569 80.6919 21.4569ZM97.9459 47.9472C95.1568 51.4968 91.7838 53.1401 87.373 53.1401C79.9784 53.1401 75.1135 48.0787 74.9189 38.6789H98.7243V36.7726C98.7243 26.7155 92.9514 19.6164 81.6649 19.6164C70.5081 19.6164 60.7135 28.1616 60.7135 42.0312C60.7135 55.4407 69.7297 62.6713 80.9514 62.6713C90.8757 62.6713 96.6487 57.1498 98.7892 48.2759L97.9459 47.9472ZM21.7946 14.4892C21.7946 10.611 22.1189 9.88793 26.9838 9.36207V8.24461H0V9.36207C4.92973 9.88793 5.18919 10.611 5.18919 14.4892V55.6379C5.18919 59.5162 4.86486 60.2392 0 60.7651V61.8825H26.9838V60.7651C22.0541 60.2392 21.7946 59.5162 21.7946 55.6379V35.6552H39.3081V55.6379C39.3081 59.5162 38.9838 60.2392 34.1189 60.7651V61.8825H61.1027V60.7651C56.173 60.2392 55.9135 59.5162 55.9135 55.6379V14.4892C55.9135 10.611 56.2378 9.88793 61.1027 9.36207V8.24461H34.1189V9.36207C39.0486 9.88793 39.3081 10.611 39.3081 14.4892V33.4203H21.7946V14.4892Z" fill="black"/>
<path d="M277.711 56.6897C278.489 56.6897 279.138 56.4925 280.046 56.0981L280.5 56.8211C278.554 60.8308 274.792 63 270.251 63C264.154 63 261.17 59.9763 259.743 55.375C257.019 60.6994 252.349 63 247.938 63C242.295 63 237.235 59.319 237.235 52.0226C237.235 45.3179 241.841 42.4256 247.419 40.7166C252.024 39.2705 255.657 38.9418 259.678 38.4817V27.9644C259.678 24.1519 259.159 21.4569 256.759 21.4569C252.543 21.4569 253.127 29.6735 253.581 34.9321L244.241 35.5894C241.97 34.8664 240.478 32.6972 240.478 29.805C240.478 22.5086 247.678 19.6164 257.149 19.6164C268.305 19.6164 275.246 22.903 275.246 33.2231V53.4688C275.246 55.6379 276.284 56.6897 277.711 56.6897Z" fill="black"/>
<path d="M255.941 40.6509C253.541 41.5054 251.854 43.1487 251.854 47.6843C251.854 51.4968 253.086 54.4547 256.784 54.4547C257.627 54.4547 258.211 54.3233 258.989 53.9946V39.7306C257.822 40.0593 256.978 40.2565 255.941 40.6509Z" fill="white"/>
</g>
<defs>
<clipPath id="clip0">
<rect width="383" height="63" fill="white"/>
</clipPath>
</defs>
</svg>
