<svg xmlns="http://www.w3.org/2000/svg" viewBox="0 0 383 63" class="app-brand-logo"> <g fill="#000" fill-rule="evenodd"> <path fill="#d72236" d="M355.461977 2.25l-.846007 2.33333333C354.446768 4.16666667 354.023764 4 353.51616 4c-.761407 0-1.522814.41666667-2.19962 1.08333333-1.015209 1-1.776616 2.58333334-1.776616 3.66666667 0 1.08333333.592205 1.4166667 1.184411 1.4166667.507604 0 1.015209-.25000003 1.353612-.58333337.507604-.5 1.18441-1.41666666 1.438213-2h.0846l-.253802.75c-.338403 1.08333334-.507604 1.41666667-.507604 1.5 0 .08333334.0846.24999997.507604.24999997 1.861217 0 2.538023-1.24999997 3.045628-1.99999997h-.084601C355.884981 8.66666667 355.461977 9 355.208175 9c0 0-.084601 0-.084601-.08333333 0 0 0-.08333334.084601-.16666667L358 1l-3.045627.33333333v.08333334L355.208175 1.5c.253802.08333333.423004.16666667.423004.25-.084601.16666667-.169202.41666667-.169202.5zm-1.09981 2.66666667c0 .41666666-.253802 1-.592205 1.75-.507605 1-1.015209 1.91666666-1.522814 2.41666666-.169201.16666667-.253802.25-.423004.25-.169201 0-.253802-.08333333-.253802-.5 0-.91666666 1.184411-3.41666666 1.861217-4.16666666.169201-.16666667.338403-.25.507604-.25.253803-.08333334.423004.16666666.423004.5zM346.071293 10c.592205-1.25 1.18441-2.58333333 1.353612-2.91666667.169201-.41666666.507605-.91666666.676806-1.08333333.084601-.08333333.253802-.16666667.423004-.16666667.423004 0 1.09981.41666667 1.18441.5.338404-.33333333.592206-.83333333.592206-1.25 0-.75-.507605-1-.846008-1s-.592205.08333334-.846007.33333334c-.423004.41666666-.676806.83333333-1.522814 2.91666666h-.084601l.338403-1.25c.338403-1 .338403-1.33333333.338403-1.5 0-.25-.253802-.5-1.015209-.5-.676806 0-1.015209.25-1.353612.5-.338403.33333334-.592205.75-1.015209 1.66666667h.084601c.338403-.66666667.507604-.83333333.676806-1.08333333C345.140684 5.08333333 345.225285 5 345.394487 5c.0846 0 .169201 0 .169201.08333333 0 .08333334 0 .16666667-.084601.5l-1.353612 4.33333334h1.945818V10zm-3.722434-5.75c.169202 0 .253803.16666667.253803.5 0 .41666667-.169202 1.25-.676806 1.75-.253803.25-.592206.41666667-1.09981.58333333C341.164449 5.66666667 341.925856 4.25 342.348859 4.25zm-1.945817 5.9166667c1.438213 0 2.368821-1.08333337 2.961026-2.08333337L343.279468 8c-.507605.58333333-1.015209 1.08333333-1.607415 1.08333333-.338403 0-.846007-.16666666-.846007-1.08333333 0-.25 0-.58333333.0846-.83333333C341.925856 7 342.771863 6.75 343.364068 6.5c.846008-.41666667 1.09981-1 1.09981-1.5 0-.58333333-.507604-1.08333333-1.522813-1.08333333-2.19962 0-4.230038 2.33333333-4.230038 4.33333333-.084601 1.16666667.507604 1.9166667 1.692015 1.9166667zM337.103612 4.25c.169202 0 .253802.16666667.253802.5 0 .41666667-.169201 1.25-.676806 1.75-.253802.25-.592205.41666667-1.09981.58333333C335.919202 5.66666667 336.680608 4.25 337.103612 4.25zm-1.945817 5.9166667c1.438213 0 2.368821-1.08333337 2.961026-2.08333337L338.034221 8c-.507605.58333333-1.01521 1.08333333-1.607415 1.08333333-.338403 0-.846008-.16666666-.846008-1.08333333 0-.25 0-.58333333.084601-.83333333C336.680608 7 337.526616 6.75 338.118821 6.5c.846008-.41666667 1.09981-1 1.09981-1.5 0-.58333333-.507604-1.08333333-1.522814-1.08333333-2.199619 0-4.230038 2.33333333-4.230038 4.33333333-.0846 1.16666667.507605 1.9166667 1.692016 1.9166667zm-5.076046-2.50000003c0-.75.507605-1.58333334 1.269011-3l.253803-.5h-1.607415c-.592205 0-1.015209 0-1.269011.25-.507605.5-.761407 1.5-.930608 2.5h.0846c.084601-.33333334.169202-.58333334.253803-.75.169201-.33333334.338403-.41666667.930608-.41666667h1.269011l-.507604.33333333c-1.269012 1-1.776616 1.58333334-1.776616 2.33333334 0 .83333333.592205 1.75000003 1.607414 1.75000003.930609 0 2.115019-.83333337 2.961027-2.50000003.253802-.5.846007-1.75.846007-2.66666667 0-.91666667-.423003-1.08333333-.761406-1.08333333-.676806 0-1.09981.83333333-1.09981 1.33333333 0 .33333333.0846.5.507604.66666667L332.281369 6c.423004.16666667.592205.25.592205.41666667 0 .33333333-.253802.91666666-.423004 1.25-.423003.75-.930608 1.41666666-1.438213 1.41666666-.676806-.08333333-.930608-1-.930608-1.41666666zM323.56749 10c.592206-1.25 1.09981-2.58333333 1.353613-2.91666667.169201-.41666666.507604-.91666666.676806-1.08333333.169201-.08333333.253802-.16666667.423004-.16666667.423003 0 1.099809.41666667 1.18441.5.338403-.33333333.592206-.83333333.592206-1.25 0-.75-.507605-1-.846008-1s-.592205.08333334-.846008.33333334c-.423003.41666666-.676806.83333333-1.522813 2.91666666h-.084601l.338403-1.25c.338403-1 .338403-1.33333333.338403-1.5 0-.25-.253802-.5-1.015209-.5-.676806 0-1.015209.25-1.353612.5-.338403.33333334-.592206.75-1.015209 1.66666667h.0846c.338403-.66666667.507605-.83333333.676806-1.08333333C322.636882 5.08333333 322.721483 5 322.890684 5c.084601 0 .169202 0 .169202.08333333 0 .08333334 0 .16666667-.084601.5l-1.353612 4.33333334h1.945817V10zm-3.722433-5.75c.169202 0 .253802.16666667.253802.5 0 .41666667-.169201 1.25-.676806 1.75-.253802.25-.592205.41666667-1.09981.58333333C318.576046 5.66666667 319.337452 4.25 319.845057 4.25zm-2.030418 5.9166667c1.438213 0 2.368821-1.08333337 2.961026-2.08333337L320.691065 8c-.507605.58333333-1.015209 1.08333333-1.607415 1.08333333-.338403 0-.846007-.16666666-.846007-1.08333333 0-.25 0-.58333333.0846-.83333333C319.337452 7 320.18346 6.75 320.775665 6.5c.846008-.41666667 1.09981-1 1.09981-1.5 0-.58333333-.507604-1.08333333-1.522813-1.08333333-2.19962 0-4.230038 2.33333333-4.230038 4.33333333 0 1.16666667.507604 1.9166667 1.692015 1.9166667zm-5.076046-2.50000003c0-.75.507605-1.58333334 1.269012-3l.253802-.5h-1.607415c-.592205 0-1.015209 0-1.269011.25-.507605.5-.761407 1.5-.930608 2.5h.0846c.084601-.33333334.169202-.58333334.253803-.75.169201-.33333334.423003-.41666667.930608-.41666667h1.269011l-.507604.33333333c-1.269012 1-1.776616 1.58333334-1.776616 2.33333334 0 .83333333.592205 1.75000003 1.607414 1.75000003.930609 0 2.115019-.83333337 2.961027-2.50000003.253802-.5.846008-1.75.846008-2.66666667 0-.91666667-.423004-1.08333333-.761407-1.08333333-.676806 0-1.09981.83333333-1.09981 1.33333333 0 .33333333.084601.5.507604.66666667L314.938213 6c.423004.16666667.592205.25.592205.41666667 0 .33333333-.253802.91666666-.423004 1.25-.423003.75-.930608 1.41666666-1.438212 1.41666666-.676807-.08333333-.930609-1-.930609-1.41666666zm-6.429658 2.25c0 .08333333 0 .25000003.507605.25000003 1.607414 0 2.622623-1.00000003 3.130228-2.00000003h-.084601c-.423004.58333333-.761407.91666666-1.09981.91666666-.0846 0-.0846-.08333333 0-.25l.930609-2.25c.253802-.66666666.592205-1.25.592205-1.66666666 0-.41666667-.253802-.83333334-1.184411-.83333334-.507604 0-1.015209.16666667-1.522813.66666667-.507605.5-.930609 1.41666667-1.607415 2.66666667h-.0846l.507604-1.25c.423004-1 .423004-1.33333334.423004-1.5 0-.25-.253802-.5-1.015209-.5-.676806 0-1.09981.25-1.438213.5-.338403.33333333-.592205.75-1.015209 1.66666666h.084601c.338403-.66666666.507604-.83333333.676806-1.08333333.0846-.08333333.169201-.16666667.338403-.16666667.0846 0 .169201 0 .169201.08333334 0 .08333333 0 .16666666-.084601.25l-1.776616 4.5h1.945818c1.269011-2.58333334 2.19962-4.25 2.538023-4.58333334.169201-.16666666.338403-.16666666.423004-.16666666.169201 0 .253802.08333333.253802.16666666 0 .16666667-.084601.33333334-.253802.75L306.731939 8.25c-.338403 1.16666667-.423004 1.58333333-.423004 1.66666667zm-9.644486-1.25c0-2.5 1.945817-7 3.553232-7 .423003 0 .761406.33333333.761406 1.33333333 0 2.5-1.945817 7-3.553231 7-.423004 0-.761407-.33333333-.761407-1.33333333zm6.429657-4c0-2.33333334-1.522813-3.25-3.130228-3.25-3.553232 0-5.329848 3.33333333-5.329848 5.5 0 2.33333333 1.522814 3.25000003 3.130229 3.25000003 3.468631 0 5.329847-3.25000003 5.329847-5.50000003zM290.826996 9.25c0-1-.676806-1.41666667-1.353612-1.41666667-.761407 0-1.269011.58333334-1.269011 1.16666667 0 .33333333.0846.66666667.676806.75l.253802.08333333c.338403.08333334.423004.08333334.423004.24999997 0 1-.676806 1.6666667-2.538023 2.0833334V12.25c2.19962-.25 3.807034-1.25 3.807034-3zm-2.115019-4.91666667c0-.08333333-.084601-.25-.507604-.25-1.692016 0-2.622624 1.33333334-3.045628 2.16666667h.084601c.507605-.66666667.761407-1 1.09981-1 .084601 0 .084601.08333333 0 .25l-1.945818 6.1666667c-.338403 1-.338403 1.0833333-.507604 1.0833333-.084601 0-.084601-.0833333-.169202-.3333333l-.338403-1.0833334c-.0846-.3333333-.253802-.4166666-.423004-.4166666-.507604 0-1.015209.4166666-1.015209 1 0 .5.338403 1.0833333 1.438213 1.0833333 1.607415 0 3.045628-1.6666667 3.553232-3.25L288.542776 5c.0846-.25.169201-.58333333.169201-.66666667zm-.507604-1c.592205 0 1.18441-.5 1.18441-1.16666666 0-.5-.338403-.91666667-.930608-.91666667s-1.184411.5-1.184411 1.16666667c-.084601.5.253803.91666666.930609.91666666zm-6.852662 5.08333334c-.423004 1-.507605 1.41666666-.507605 1.5 0 .08333333.084601.25000003.507605.25000003 1.692015 0 2.622624-1.25000003 3.045627-2.00000003h-.0846c-.423004.5-.761407.91666666-1.09981.91666666-.084601 0-.084601-.08333333 0-.25l1.18441-3c.423004-1 .507605-1.41666666.507605-1.5 0-.08333333-.084601-.25-.507605-.25-1.692015 0-2.622623 1.33333334-3.045627 2.16666667h.084601c.507604-.66666667.761407-1 1.09981-1 .0846 0 .0846.08333333 0 .25l-1.184411 2.91666667zm2.961027-5.08333334c.592205 0 1.18441-.5 1.18441-1.16666666 0-.5-.338403-.91666667-.930608-.91666667s-1.184411.5-1.184411 1.16666667c-.0846.5.253803.91666666.930609.91666666zM277.037072 10c.592206-1.25 1.09981-2.58333333 1.353612-2.91666667.169202-.41666666.507605-.91666666.676806-1.08333333.084601-.08333333.253803-.16666667.423004-.16666667.423004 0 1.09981.41666667 1.184411.5.338403-.33333333.592205-.83333333.592205-1.25 0-.75-.507604-1-.846007-1-.338403 0-.592206.08333334-.846008.33333334-.423004.41666666-.676806.83333333-1.522814 2.91666666h-.0846l.338403-1.25c.338403-1 .338403-1.33333333.338403-1.5 0-.25-.253803-.5-1.015209-.5-.676807 0-1.01521.25-1.353613.5-.338403.33333334-.592205.75-1.015209 1.66666667h.084601c.338403-.66666667.507605-.83333333.676806-1.08333333C276.106464 5.08333333 276.191065 5 276.360266 5c.084601 0 .169202 0 .169202.08333333 0 .08333334 0 .16666667-.084601.5l-1.353612 4.33333334h1.945817V10zm-.846007-6.75c.676806-.83333333.846007-1 1.438213-1.33333333l.592205-.25h-3.29943V1.75l.338403.16666667c.507605.25.592206.33333333.592206.41666666 0 .16666667-.169202.5-1.269012 1.91666667l-2.538023 3.41666667h-.0846l.338403-5.08333334c0-.16666666 0-.33333333.0846-.41666666.084601-.16666667.338403-.33333334.846008-.33333334h.253802v-.16666666H269V1.75h.253802c.676806.08333333.761407.16666667.676806.83333333l-.253802 7.49999997h.676806L276.191065 3.25z"></path> <path d="M379.978378 58.0043103V2h-1.102702l-18.421622 3.41810345v1.1174569l4.021622 2.30064655v49.1681034c0 2.3006466-1.232433 2.4978449-4.021622 2.7607759v1.1174569H384v-1.1174569c-2.854054-.1971983-4.021622-.4601293-4.021622-2.7607759zm-36.713513-16.1045258c0-12.8836207-1.362162-20.4428879-5.383784-20.4428879-4.021622 0-5.383784 7.5592672-5.383784 20.4428879 0 12.8836207 1.362162 19.1939655 5.383784 19.1939655 4.021622 0 5.383784-6.3760776 5.383784-19.1939655zm16.54054 0c0 12.7521552-9.016216 21.0344827-21.924324 21.0344827-12.908108 0-21.924324-8.2823275-21.924324-21.0344827 0-12.7521552 8.237838-22.2834052 21.924324-22.2834052 13.686487 0 21.924324 9.4655173 21.924324 22.2834052zm-62.659459 0c0-12.8836207-1.362162-20.4428879-5.383784-20.4428879-4.021621 0-5.383784 7.5592672-5.383784 20.4428879 0 12.8836207 1.362163 19.1939655 5.383784 19.1939655 4.021622 0 5.383784-6.3760776 5.383784-19.1939655zm16.54054 0c0 12.7521552-9.016216 21.0344827-21.924324 21.0344827-12.908108 0-21.924324-8.2823275-21.924324-21.0344827 0-12.7521552 8.237838-22.2834052 21.924324-22.2834052 13.751352 0 21.924324 9.4655173 21.924324 22.2834052zm-48.194594-22.2834052c-7.005406 0-9.989189 9.2025862-11.286487 14.3297414l.324325-14.3297414h-1.102703l-18.745946 4.6012931v1.1174569l4.021622 2.6293104v30.1056034c0 2.3006466-1.232433 2.4978448-4.021622 2.7607759v1.1174569h25.427027V60.830819c-4.216216-.5915949-5.902703-.8545259-5.902703-4.0096983v-20.96875c3.372973-3.8782328 11.481081-4.0096983 14.65946-2.3006466l.518919-.3943965V20.9310345c-.778379-.7887931-1.945946-1.3146552-3.891892-1.3146552zm-58.637838 28.0678879c0-4.5355603 1.686487-6.1788793 4.086487-7.0334051 1.037837-.3943966 1.881081-.5915949 3.048648-.9202587v14.2640087c-.778378.3286638-1.362162.4601293-2.205405.4601293-3.697298 0-4.92973-2.9579742-4.92973-6.7704742zm27.502703 8.4137931c-.908108.3943966-1.556757.5915949-2.335135.5915949-1.427027 0-2.464865-1.0517242-2.464865-3.2209052V33.2230603c0-10.3200431-6.940541-13.606681-18.097298-13.606681-9.47027 0-16.67027 2.8922414-16.67027 10.1885776 0 2.8922414 1.491892 5.0614224 3.762162 5.7844828l9.340541-.6573276c-.454054-5.2586207-1.037838-13.4752155 3.178378-13.4752155 2.4 0 2.918919 2.6950431 2.918919 6.5075431V38.481681c-4.021621.4601293-7.654054.7887931-12.259459 2.2349138-5.578379 1.7090518-10.183784 4.6012931-10.183784 11.3060345C191.545946 59.3189655 196.605405 63 202.248649 63c4.41081 0 9.081081-2.3006466 11.805405-7.625 1.427027 4.6012931 4.410811 7.625 10.508108 7.625 4.540541 0 8.302703-2.169181 10.248649-6.1788793l-.454054-.7230604zm-69.72973-16.1702586V9.69073276H165.6c6.162162 0 10.572973 5.25862064 10.572973 14.78987064 0 9.5969828-3.762162 15.4471983-10.572973 15.4471983h-.972973zm0 15.7101293V41.5053879h4.92973c15.437838 0 22.767567-6.1131465 22.767567-17.0247845 0-9.3997844-6.94054-16.3017241-21.924324-16.3017241h-27.567568v1.1174569c4.92973.52586208 5.18919 1.2489224 5.18919 5.1271552V55.637931c0 3.8782328-.324325 4.6012931-5.18919 5.1271552v1.1174569h30.486487v-1.1174569c-6.616216-.262931-8.691892-1.1831896-8.691892-5.1271552zm-45.016216-35.2984913V9.69073276h-1.102703C112.151351 15.080819 105.6 19.15625 99.7621622 21.4568966v1.1174568h4.0864868v27.1476294c0 9.2025862 5.059459 12.8836206 12.324324 12.8836206 6.356757 0 11.87027-3.8125 13.816216-10.9773706l-.908108-.3943966c-1.491892 2.0377155-3.243243 2.7607759-5.189189 2.7607759-2.27027 0-4.216216-1.5118535-4.216216-4.7984914V22.6400862h8.367567v-2.3006465h-8.432432zm-38.9189191 1.1174569c3.6324324 0 4.8648649 5.5215517 4.8648649 14.9870689l-10.7027027.7887931c.3243243-9.53125 2.0756756-15.775862 5.8378378-15.775862zm17.254054 26.4903017c-2.7891891 3.5495689-6.1621621 5.1928879-10.5729729 5.1928879-7.3945946 0-12.2594595-5.0614224-12.4540541-14.4612069h23.8054054v-1.90625c0-10.0571121-5.7729729-17.15625-17.0594594-17.15625-11.1567568 0-20.9513514 8.5452586-20.9513514 22.4148707 0 13.4094828 9.0162162 20.6400862 20.2378379 20.6400862 9.9243243 0 15.6972972-5.5215517 17.8378378-14.3954741l-.8432433-.3286638zM21.7945946 14.4892241c0-3.8782327.3243243-4.60129307 5.1891892-5.12715513v-1.1174569H0v1.1174569c4.92972973.52586206 5.1891892 1.24892243 5.1891892 5.12715513V55.637931c0 3.8782328-.32432434 4.6012931-5.1891892 5.1271552v1.1174569h26.9837838v-1.1174569c-4.9297297-.5258621-5.1891892-1.2489224-5.1891892-5.1271552V35.6551724h17.5135135V55.637931c0 3.8782328-.3243243 4.6012931-5.1891892 5.1271552v1.1174569h26.9837838v-1.1174569c-4.9297297-.5258621-5.1891892-1.2489224-5.1891892-5.1271552V14.4892241c0-3.8782327.3243243-4.60129307 5.1891892-5.12715513v-1.1174569H34.1189189v1.1174569c4.9297297.52586206 5.1891892 1.24892243 5.1891892 5.12715513v18.9310345H21.7945946V14.4892241z"></path> </g> </svg>